<svg xmlns="http://www.w3.org/2000/svg" viewBox="0 0 100 100">
  <!-- Mitad superior roja -->
  <path d="M 50 5 A 45 45 0 0 1 95 50 L 62 50 A 12 12 0 0 0 38 50 L 5 50 A 45 45 0 0 1 50 5 Z" fill="#cc0000"/>
  <!-- Mitad inferior blanca -->
  <path d="M 50 95 A 45 45 0 0 1 5 50 L 38 50 A 12 12 0 0 0 62 50 L 95 50 A 45 45 0 0 1 50 95 Z" fill="#ffffff"/>
  <!-- Borde exterior -->
  <circle cx="50" cy="50" r="45" fill="none" stroke="#222222" stroke-width="5"/>
  <!-- Línea horizontal -->
  <line x1="5" y1="50" x2="95" y2="50" stroke="#222222" stroke-width="5"/>
  <!-- Círculo central exterior -->
  <circle cx="50" cy="50" r="12" fill="#ffffff" stroke="#222222" stroke-width="5"/>
  <!-- Círculo central interior -->
  <circle cx="50" cy="50" r="5" fill="#cccccc"/>
</svg>
